<svg xmlns="http://www.w3.org/2000/svg" xmlns:xlink="http://www.w3.org/1999/xlink" width="58.435" height="73.171" viewBox="0 0 58.435 73.171">
  <defs>
    <linearGradient id="linear-gradient" x1="-0.022" y1="0.5" x2="1.046" y2="0.5" gradientUnits="objectBoundingBox">
      <stop offset="0" stop-color="#6c2f1d"/>
      <stop offset="0.075" stop-color="#6e311f"/>
      <stop offset="0.125" stop-color="#753a25"/>
      <stop offset="0.167" stop-color="#814931"/>
      <stop offset="0.205" stop-color="#925e41"/>
      <stop offset="0.239" stop-color="#a87956"/>
      <stop offset="0.241" stop-color="#aa7b58"/>
      <stop offset="0.321" stop-color="#743e2b"/>
      <stop offset="0.467" stop-color="#783f25"/>
      <stop offset="0.532" stop-color="#81422a"/>
      <stop offset="0.618" stop-color="#8a452f"/>
      <stop offset="0.671" stop-color="#ab6747"/>
      <stop offset="0.707" stop-color="#bd7a55"/>
      <stop offset="0.804" stop-color="#734627"/>
      <stop offset="1" stop-color="#56271a"/>
    </linearGradient>
    <linearGradient id="linear-gradient-2" x1="-0.022" y1="0.5" x2="1.046" y2="0.5" gradientUnits="objectBoundingBox">
      <stop offset="0" stop-color="#a37033"/>
      <stop offset="0.016" stop-color="#c18d34"/>
      <stop offset="0.031" stop-color="#d9a535"/>
      <stop offset="0.041" stop-color="#e3ae36"/>
      <stop offset="0.115" stop-color="#e6b139"/>
      <stop offset="0.187" stop-color="#f0bd42"/>
      <stop offset="0.236" stop-color="#fcca4c"/>
      <stop offset="0.453" stop-color="#bf820d"/>
      <stop offset="0.479" stop-color="#b97c10"/>
      <stop offset="0.587" stop-color="#a5681b"/>
      <stop offset="0.66" stop-color="#9e6120"/>
      <stop offset="0.714" stop-color="#a36720"/>
      <stop offset="0.788" stop-color="#b17823"/>
      <stop offset="0.872" stop-color="#c89426"/>
      <stop offset="0.929" stop-color="#dbac2a"/>
      <stop offset="0.95" stop-color="#d7a72b"/>
      <stop offset="0.973" stop-color="#cd9930"/>
      <stop offset="0.998" stop-color="#bb8339"/>
      <stop offset="1" stop-color="#ba813a"/>
    </linearGradient>
    <linearGradient id="linear-gradient-3" x1="-0.022" y1="0.5" x2="1.046" y2="0.5" gradientUnits="objectBoundingBox">
      <stop offset="0" stop-color="#aa711d"/>
      <stop offset="0.102" stop-color="#b47a1e"/>
      <stop offset="0.245" stop-color="#cb8e21"/>
      <stop offset="0.452" stop-color="#e9b038"/>
      <stop offset="0.618" stop-color="#c7891c"/>
      <stop offset="0.809" stop-color="#ba8222"/>
      <stop offset="0.903" stop-color="#9a631d"/>
      <stop offset="1" stop-color="#764019"/>
    </linearGradient>
    <linearGradient id="linear-gradient-4" x1="-0.022" y1="0.5" x2="1.046" y2="0.5" gradientUnits="objectBoundingBox">
      <stop offset="0" stop-color="#040404"/>
      <stop offset="0.034" stop-color="#0e0e0e"/>
      <stop offset="0.126" stop-color="#252525"/>
      <stop offset="0.184" stop-color="#2e2e2e"/>
      <stop offset="0.347" stop-color="#1b1b1b"/>
      <stop offset="0.505" stop-color="#050505"/>
      <stop offset="0.622" stop-color="#0f0f0f"/>
      <stop offset="0.776" stop-color="#141414"/>
      <stop offset="0.923" stop-color="#161616"/>
      <stop offset="0.949" stop-color="#0f0f0f"/>
      <stop offset="1" stop-color="#070707"/>
    </linearGradient>
    <linearGradient id="linear-gradient-5" x1="0" y1="0.5" x2="1" y2="0.5" xlink:href="#linear-gradient"/>
    <linearGradient id="linear-gradient-6" x1="0" y1="0.5" x2="1" y2="0.5" xlink:href="#linear-gradient-2"/>
    <linearGradient id="linear-gradient-7" x1="-0.217" y1="0.5" x2="1.611" y2="0.5" xlink:href="#linear-gradient-3"/>
    <linearGradient id="linear-gradient-8" x1="-0.445" y1="0.5" x2="1.971" y2="0.5" xlink:href="#linear-gradient-3"/>
    <linearGradient id="linear-gradient-9" x1="-10.545" y1="0.499" x2="41.979" y2="0.499" xlink:href="#linear-gradient-3"/>
    <linearGradient id="linear-gradient-10" x1="-12.487" y1="0.499" x2="40.202" y2="0.499" xlink:href="#linear-gradient-3"/>
    <linearGradient id="linear-gradient-11" x1="-14.3" y1="0.499" x2="38.062" y2="0.499" xlink:href="#linear-gradient-3"/>
    <linearGradient id="linear-gradient-12" x1="-16.352" y1="0.499" x2="36.5" y2="0.499" xlink:href="#linear-gradient-3"/>
    <linearGradient id="linear-gradient-13" x1="-18.092" y1="0.499" x2="34.273" y2="0.499" xlink:href="#linear-gradient-3"/>
    <linearGradient id="linear-gradient-14" x1="-20.115" y1="0.499" x2="32.572" y2="0.499" xlink:href="#linear-gradient-3"/>
    <linearGradient id="linear-gradient-15" x1="-22.092" y1="0.499" x2="30.758" y2="0.499" xlink:href="#linear-gradient-3"/>
    <linearGradient id="linear-gradient-16" x1="-23.781" y1="0.499" x2="28.584" y2="0.499" xlink:href="#linear-gradient-3"/>
    <linearGradient id="linear-gradient-17" x1="-25.604" y1="0.499" x2="26.611" y2="0.499" xlink:href="#linear-gradient-3"/>
    <linearGradient id="linear-gradient-18" x1="-27.825" y1="0.499" x2="25.009" y2="0.499" xlink:href="#linear-gradient-3"/>
    <linearGradient id="linear-gradient-19" x1="-29.471" y1="0.499" x2="22.892" y2="0.499" xlink:href="#linear-gradient-3"/>
    <linearGradient id="linear-gradient-20" x1="-0.96" y1="0.5" x2="6.534" y2="0.5" xlink:href="#linear-gradient-3"/>
    <linearGradient id="linear-gradient-21" x1="-5.959" y1="0.5" x2="1.535" y2="0.5" xlink:href="#linear-gradient-3"/>
    <linearGradient id="linear-gradient-22" x1="-0.358" y1="0.5" x2="1.266" y2="0.5" xlink:href="#linear-gradient-3"/>
    <linearGradient id="linear-gradient-23" x1="-8.604" y1="0.5" x2="22.582" y2="0.5" xlink:href="#linear-gradient-4"/>
    <linearGradient id="linear-gradient-24" x1="-11.662" y1="0.5" x2="24.788" y2="0.5" xlink:href="#linear-gradient-4"/>
    <linearGradient id="linear-gradient-25" x1="-12.193" y1="0.5" x2="21.941" y2="0.5" xlink:href="#linear-gradient-4"/>
    <linearGradient id="linear-gradient-26" x1="-11.958" y1="0.5" x2="18.346" y2="0.5" xlink:href="#linear-gradient-4"/>
    <linearGradient id="linear-gradient-27" x1="-14.235" y1="0.5" x2="17.067" y2="0.5" xlink:href="#linear-gradient-4"/>
    <linearGradient id="linear-gradient-28" x1="-14.845" y1="0.5" x2="14.965" y2="0.5" xlink:href="#linear-gradient-4"/>
    <linearGradient id="linear-gradient-29" x1="-13.359" y1="0.5" x2="11.22" y2="0.5" xlink:href="#linear-gradient-4"/>
    <linearGradient id="linear-gradient-30" x1="-65.887" y1="0.5" x2="44.631" y2="0.5" xlink:href="#linear-gradient-4"/>
    <linearGradient id="linear-gradient-31" x1="-19.319" y1="0.5" x2="11.983" y2="0.5" xlink:href="#linear-gradient-4"/>
    <linearGradient id="linear-gradient-32" x1="-24.071" y1="0.5" x2="12.379" y2="0.5" xlink:href="#linear-gradient-4"/>
    <linearGradient id="linear-gradient-33" x1="-4.254" y1="0.5" x2="9.054" y2="0.5" xlink:href="#linear-gradient-2"/>
    <linearGradient id="linear-gradient-34" x1="-9.294" y1="0.5" x2="15.136" y2="0.5" xlink:href="#linear-gradient-2"/>
    <linearGradient id="linear-gradient-35" x1="-11.209" y1="0.5" x2="15.616" y2="0.5" xlink:href="#linear-gradient-2"/>
    <linearGradient id="linear-gradient-36" x1="-17.201" y1="0.5" x2="20.839" y2="0.5" xlink:href="#linear-gradient-2"/>
    <linearGradient id="linear-gradient-37" x1="-12.738" y1="0.5" x2="14.076" y2="0.5" xlink:href="#linear-gradient-2"/>
    <linearGradient id="linear-gradient-38" x1="-11.549" y1="0.5" x2="11.122" y2="0.5" xlink:href="#linear-gradient-2"/>
    <linearGradient id="linear-gradient-39" x1="-18.631" y1="0.5" x2="15.21" y2="0.5" xlink:href="#linear-gradient-2"/>
    <linearGradient id="linear-gradient-40" x1="-20.717" y1="0.5" x2="15.646" y2="0.5" xlink:href="#linear-gradient-2"/>
    <linearGradient id="linear-gradient-41" x1="-21.578" y1="0.5" x2="14.744" y2="0.5" xlink:href="#linear-gradient-2"/>
    <linearGradient id="linear-gradient-42" x1="-10.826" y1="0.5" x2="6.689" y2="0.5" xlink:href="#linear-gradient-2"/>
    <linearGradient id="linear-gradient-43" x1="-3.487" y1="0.5" x2="6.457" y2="0.5" xlink:href="#linear-gradient-2"/>
    <linearGradient id="linear-gradient-44" x1="-10.284" y1="0.501" x2="14.145" y2="0.501" xlink:href="#linear-gradient-2"/>
    <linearGradient id="linear-gradient-45" x1="-10.405" y1="0.5" x2="12.271" y2="0.5" xlink:href="#linear-gradient-2"/>
    <linearGradient id="linear-gradient-46" x1="-8.744" y1="0.5" x2="8.761" y2="0.5" xlink:href="#linear-gradient-2"/>
    <linearGradient id="linear-gradient-47" x1="-20.296" y1="0.5" x2="17.72" y2="0.5" xlink:href="#linear-gradient-2"/>
    <linearGradient id="linear-gradient-48" x1="-20.234" y1="0.501" x2="16.088" y2="0.501" xlink:href="#linear-gradient-2"/>
    <linearGradient id="linear-gradient-49" x1="-10.177" y1="0.5" x2="7.337" y2="0.5" xlink:href="#linear-gradient-2"/>
    <linearGradient id="linear-gradient-50" x1="-4.284" y1="0.5" x2="6.92" y2="0.5" xlink:href="#linear-gradient-2"/>
    <linearGradient id="linear-gradient-51" x1="-16.207" y1="0.5" x2="20.177" y2="0.5" xlink:href="#linear-gradient-2"/>
    <linearGradient id="linear-gradient-52" x1="-17.86" y1="0.5" x2="20.157" y2="0.5" xlink:href="#linear-gradient-2"/>
    <linearGradient id="linear-gradient-53" x1="-18.476" y1="0.5" x2="18.991" y2="0.5" xlink:href="#linear-gradient-2"/>
    <linearGradient id="linear-gradient-54" x1="-18.776" y1="0.5" x2="17.546" y2="0.5" xlink:href="#linear-gradient-2"/>
    <linearGradient id="linear-gradient-55" x1="-12.276" y1="0.5" x2="10.396" y2="0.5" xlink:href="#linear-gradient-2"/>
    <linearGradient id="linear-gradient-56" x1="-19.749" y1="0.5" x2="14.149" y2="0.5" xlink:href="#linear-gradient-2"/>
  </defs>
  <g id="그룹_666" data-name="그룹 666" transform="translate(-81.251 -84.968)">
    <g id="_03" data-name="03" transform="translate(81.251 84.968)">
      <path id="패스_710" data-name="패스 710" d="M110.469,158.139a4.523,4.523,0,0,1-2.255-.605L83.505,143.258a4.521,4.521,0,0,1-2.254-3.9V89.477a4.515,4.515,0,0,1,4.509-4.509h49.416a4.515,4.515,0,0,1,4.509,4.509v49.876a4.522,4.522,0,0,1-2.253,3.9l-24.708,14.276A4.527,4.527,0,0,1,110.469,158.139Z" transform="translate(-81.251 -84.968)" fill="url(#linear-gradient)"/>
      <path id="패스_711" data-name="패스 711" d="M110.412,157.835a4.276,4.276,0,0,1-2.132-.57L83.572,142.988a4.278,4.278,0,0,1-2.131-3.691V89.421A4.268,4.268,0,0,1,85.7,85.158H135.12a4.267,4.267,0,0,1,4.263,4.263V139.3a4.276,4.276,0,0,1-2.129,3.691l-24.708,14.275A4.273,4.273,0,0,1,110.412,157.835Z" transform="translate(-81.194 -84.911)" fill="url(#linear-gradient-2)"/>
      <path id="패스_712" data-name="패스 712" d="M110.129,86.107H85.421a3.031,3.031,0,0,0-3.031,3.031v49.876a3.032,3.032,0,0,0,1.515,2.624l24.708,14.275a3.033,3.033,0,0,0,3.032,0l24.708-14.275a3.033,3.033,0,0,0,1.514-2.624V89.138a3.031,3.031,0,0,0-3.031-3.031Z" transform="translate(-80.911 -84.628)" fill="url(#linear-gradient-3)"/>
      <path id="패스_713" data-name="패스 713" d="M110.072,156.016a2.792,2.792,0,0,1-1.393-.373L83.972,141.367a2.791,2.791,0,0,1-1.391-2.41V89.081A2.786,2.786,0,0,1,85.364,86.3H134.78a2.787,2.787,0,0,1,2.784,2.784v49.876a2.792,2.792,0,0,1-1.392,2.41l-24.707,14.276A2.792,2.792,0,0,1,110.072,156.016Z" transform="translate(-80.854 -84.571)" fill="url(#linear-gradient-4)"/>
      <g id="그룹_523" data-name="그룹 523" transform="translate(4.486 4.372)">
        <path id="패스_714" data-name="패스 714" d="M109.437,152.507a1.3,1.3,0,0,1-.651-.174L85.358,138.8a1.3,1.3,0,0,1-.652-1.127V89.637a1.305,1.305,0,0,1,1.3-1.3h46.857a1.3,1.3,0,0,1,1.3,1.3v48.031a1.306,1.306,0,0,1-.651,1.127l-23.429,13.538A1.308,1.308,0,0,1,109.437,152.507ZM86.01,88.957a.681.681,0,0,0-.682.68v48.031a.685.685,0,0,0,.341.589L109.1,151.794a.678.678,0,0,0,.68,0l23.429-13.536a.684.684,0,0,0,.34-.589V89.637a.681.681,0,0,0-.68-.68Z" transform="translate(-84.706 -88.335)" fill="url(#linear-gradient-5)"/>
      </g>
      <g id="그룹_524" data-name="그룹 524" transform="translate(4.716 4.669)">
        <path id="패스_715" data-name="패스 715" d="M109.385,152.141a1.283,1.283,0,0,1-.645-.173L85.527,138.557a1.294,1.294,0,0,1-.644-1.117V89.855a1.292,1.292,0,0,1,1.291-1.291H132.6a1.292,1.292,0,0,1,1.291,1.291V137.44a1.3,1.3,0,0,1-.644,1.117L110.03,151.968A1.283,1.283,0,0,1,109.385,152.141ZM86.174,89.179a.674.674,0,0,0-.674.675V137.44a.679.679,0,0,0,.336.584l23.212,13.412a.678.678,0,0,0,.674,0l23.212-13.412a.679.679,0,0,0,.336-.584V89.855a.675.675,0,0,0-.674-.675Z" transform="translate(-84.883 -88.564)" fill="url(#linear-gradient-6)"/>
      </g>
    </g>
    <g id="_04" data-name="04" transform="translate(90.289 94.523)">
      <g id="그룹_525" data-name="그룹 525" transform="translate(14.025)">
        <path id="패스_716" data-name="패스 716" d="M111.324,94.925a.219.219,0,1,0-.387.126,4.161,4.161,0,0,1-.152.456c-.653,1.591-1.393,2.971-1.963,2.818s-.595-1.388-.336-3.1c.053-.33.112-.606.178-.862a.214.214,0,0,0,.135-.192.218.218,0,1,0-.436,0,.228.228,0,0,0,.057.145,14.657,14.657,0,0,1-.521,1.561c-.261.679-.786,2.081-1.645,1.961-.7-.1-.74-1.158-.992-4.213-.009-.112-.013-.208-.016-.306a.226.226,0,0,0,.106-.121h.238v-.2h-.238a.235.235,0,0,0-.125-.127v-.534h-.2v.534a.246.246,0,0,0-.123.127h-.236v.2h.236a.251.251,0,0,0,.123.13v.244c-.247,3.055-.293,4.116-.992,4.213-.857.123-1.382-1.278-1.645-1.957a13.9,13.9,0,0,1-.5-1.489.221.221,0,1,0-.36-.168.221.221,0,0,0,.1.178c.062.243.119.509.169.827.262,1.715.234,2.951-.338,3.1s-1.3-1.226-1.961-2.816c-.053-.13-.087-.248-.125-.371a.227.227,0,0,0,.066-.161.218.218,0,1,0-.436,0,.216.216,0,0,0,.13.191l1.261,4.2h9.484l1.25-4.182A.219.219,0,0,0,111.324,94.925Z" transform="translate(-99.013 -92.327)" fill="url(#linear-gradient-7)"/>
        <path id="패스_717" data-name="패스 717" d="M100.317,98.669H109.3l.167-.561h-9.317Z" transform="translate(-98.674 -90.602)" fill="url(#linear-gradient-8)"/>
        <path id="패스_718" data-name="패스 718" d="M100.65,98.786a.222.222,0,1,0,.213.221A.216.216,0,0,0,100.65,98.786Z" transform="translate(-98.589 -90.399)" fill="url(#linear-gradient-9)"/>
        <path id="패스_719" data-name="패스 719" d="M101.275,98.786a.222.222,0,0,0,0,.443.221.221,0,0,0,0-.443Z" transform="translate(-98.401 -90.399)" fill="url(#linear-gradient-10)"/>
        <path id="패스_720" data-name="패스 720" d="M101.9,98.786a.221.221,0,1,0,.216.221A.217.217,0,0,0,101.9,98.786Z" transform="translate(-98.215 -90.399)" fill="url(#linear-gradient-11)"/>
        <path id="패스_721" data-name="패스 721" d="M102.531,98.786a.222.222,0,1,0,.212.221A.216.216,0,0,0,102.531,98.786Z" transform="translate(-98.027 -90.399)" fill="url(#linear-gradient-12)"/>
        <path id="패스_722" data-name="패스 722" d="M103.16,98.786a.222.222,0,1,0,.213.221A.217.217,0,0,0,103.16,98.786Z" transform="translate(-97.84 -90.399)" fill="url(#linear-gradient-13)"/>
        <path id="패스_723" data-name="패스 723" d="M103.786,98.786a.222.222,0,1,0,.213.221A.217.217,0,0,0,103.786,98.786Z" transform="translate(-97.652 -90.399)" fill="url(#linear-gradient-14)"/>
        <path id="패스_724" data-name="패스 724" d="M104.413,98.786a.222.222,0,1,0,.213.221A.215.215,0,0,0,104.413,98.786Z" transform="translate(-97.465 -90.399)" fill="url(#linear-gradient-15)"/>
        <path id="패스_725" data-name="패스 725" d="M105.04,98.786a.221.221,0,1,0,.216.221A.218.218,0,0,0,105.04,98.786Z" transform="translate(-97.278 -90.399)" fill="url(#linear-gradient-16)"/>
        <path id="패스_726" data-name="패스 726" d="M105.668,98.786a.221.221,0,0,0,0,.443.221.221,0,0,0,0-.443Z" transform="translate(-97.091 -90.399)" fill="url(#linear-gradient-17)"/>
        <path id="패스_727" data-name="패스 727" d="M106.295,98.786a.222.222,0,0,0,0,.443.221.221,0,0,0,0-.443Z" transform="translate(-96.903 -90.399)" fill="url(#linear-gradient-18)"/>
        <path id="패스_728" data-name="패스 728" d="M106.923,98.786a.222.222,0,0,0,0,.443.221.221,0,0,0,0-.443Z" transform="translate(-96.716 -90.399)" fill="url(#linear-gradient-19)"/>
      </g>
      <g id="그룹_526" data-name="그룹 526" transform="translate(0 30.688)">
        <path id="패스_729" data-name="패스 729" d="M92.27,117.069H88.212l1.929,2.648-1.929,2.648H94.8l-2.532-1.021Z" transform="translate(-88.212 -115.631)" fill="url(#linear-gradient-20)"/>
        <path id="패스_730" data-name="패스 730" d="M120.179,117.069H116.12v4.274l-2.532,1.021h6.591l-1.929-2.648Z" transform="translate(-80.638 -115.631)" fill="url(#linear-gradient-21)"/>
        <rect id="사각형_409" data-name="사각형 409" width="30.427" height="5.523" transform="translate(4.557)" fill="url(#linear-gradient-22)"/>
      </g>
      <g id="그룹_527" data-name="그룹 527" transform="translate(8.569 32.285)">
        <path id="패스_731" data-name="패스 731" d="M96.555,118.815q0,.691-1.131.691c-.131,0-.335,0-.613-.009q.023-.526.023-1.184,0-.633-.023-1.079h.282c.053,0,.143,0,.269-.005s.225-.005.295-.005c.513,0,.77.168.77.5a.5.5,0,0,1-.395.512v.026a.737.737,0,0,1,.366.164A.48.48,0,0,1,96.555,118.815Zm-.6-.954q0-.312-.39-.312a1.78,1.78,0,0,0-.318.026c.013.118.019.318.019.6.044,0,.09,0,.139,0Q95.959,118.183,95.959,117.861Zm.126.974q0-.347-.605-.347a1.922,1.922,0,0,0-.208.009c0,.242.005.465.016.669a.763.763,0,0,0,.178.014,1.063,1.063,0,0,0,.47-.078A.274.274,0,0,0,96.085,118.834Z" transform="translate(-94.811 -117.181)" fill="url(#linear-gradient-23)"/>
        <path id="패스_732" data-name="패스 732" d="M98.148,119.111l-.013.383H96.656q.021-.526.022-1.184,0-.633-.022-1.079h1.41l-.018.38q-.522-.027-.945-.027c.01.16.017.351.017.57q.364,0,.776-.019v.364c-.27-.012-.53-.018-.776-.018,0,.235,0,.456.014.661C97.451,119.141,97.79,119.131,98.148,119.111Z" transform="translate(-94.26 -117.179)" fill="url(#linear-gradient-24)"/>
        <path id="패스_733" data-name="패스 733" d="M99.81,118.884q0,.68-.976.68a2.278,2.278,0,0,1-.617-.081l.086-.387a1.619,1.619,0,0,0,.531.1,1.055,1.055,0,0,0,.4-.055.185.185,0,0,0,.122-.18.272.272,0,0,0-.116-.222,1.936,1.936,0,0,0-.4-.209,1.276,1.276,0,0,1-.409-.257.6.6,0,0,1-.169-.432.55.55,0,0,1,.223-.467,1.029,1.029,0,0,1,.636-.169,2.44,2.44,0,0,1,.571.057l-.064.386a1.472,1.472,0,0,0-.508-.086c-.274,0-.41.074-.41.219a.224.224,0,0,0,.1.19,1.944,1.944,0,0,0,.362.175,1.382,1.382,0,0,1,.445.265A.639.639,0,0,1,99.81,118.884Z" transform="translate(-93.794 -117.187)" fill="url(#linear-gradient-25)"/>
        <path id="패스_734" data-name="패스 734" d="M101.577,117.231l-.012.373c-.232-.017-.451-.026-.656-.026,0,.219,0,.464,0,.732,0,.417.005.812.018,1.184h-.486q.021-.553.022-1.184c0-.264,0-.508-.006-.732-.164,0-.388.01-.673.029l.013-.375Z" transform="translate(-93.327 -117.179)" fill="url(#linear-gradient-26)"/>
        <path id="패스_735" data-name="패스 735" d="M104.04,119.088l-.03.4a2.046,2.046,0,0,1-.487.06,1.191,1.191,0,0,1-.908-.33,1.116,1.116,0,0,1-.313-.8,1.225,1.225,0,0,1,.331-.85,1.175,1.175,0,0,1,.909-.361,1.6,1.6,0,0,1,.4.048l-.061.4a1.236,1.236,0,0,0-.392-.066.623.623,0,0,0-.526.223.863.863,0,0,0-.171.543.849.849,0,0,0,.2.566.713.713,0,0,0,.573.24A1.69,1.69,0,0,0,104.04,119.088Z" transform="translate(-92.575 -117.186)" fill="url(#linear-gradient-27)"/>
        <path id="패스_736" data-name="패스 736" d="M105.937,119.494h-.492q.018-.577.018-1h-.876q0,.38.018,1h-.492q.021-.575.022-1.184t-.022-1.079h.492q-.021.489-.022.9h.883c0-.244-.006-.547-.021-.9h.492c-.016.295-.025.653-.025,1.079C105.913,118.754,105.922,119.149,105.937,119.494Z" transform="translate(-92.035 -117.179)" fill="url(#linear-gradient-28)"/>
        <path id="패스_737" data-name="패스 737" d="M108.233,118.332a1.251,1.251,0,0,1-.327.886,1.061,1.061,0,0,1-.809.351,1.02,1.02,0,0,1-.767-.323,1.133,1.133,0,0,1-.309-.819,1.244,1.244,0,0,1,.326-.884,1.063,1.063,0,0,1,.809-.351,1.022,1.022,0,0,1,.767.321A1.135,1.135,0,0,1,108.233,118.332Zm-.48.051a.9.9,0,0,0-.186-.589.573.573,0,0,0-.458-.226.532.532,0,0,0-.431.227,1.021,1.021,0,0,0,.009,1.165.574.574,0,0,0,.458.227.529.529,0,0,0,.431-.23A.906.906,0,0,0,107.752,118.383Z" transform="translate(-91.466 -117.191)" fill="url(#linear-gradient-29)"/>
        <path id="패스_738" data-name="패스 738" d="M108.717,119.494h-.492q.021-.539.022-1.184t-.022-1.079h.492q-.023.438-.023,1.079T108.717,119.494Z" transform="translate(-90.808 -117.179)" fill="url(#linear-gradient-30)"/>
        <path id="패스_739" data-name="패스 739" d="M110.842,119.088l-.03.4a2.046,2.046,0,0,1-.487.06,1.191,1.191,0,0,1-.908-.33,1.116,1.116,0,0,1-.313-.8,1.225,1.225,0,0,1,.331-.85,1.175,1.175,0,0,1,.909-.361,1.6,1.6,0,0,1,.4.048l-.061.4a1.238,1.238,0,0,0-.393-.066.622.622,0,0,0-.525.223.863.863,0,0,0-.171.543.843.843,0,0,0,.2.566.712.712,0,0,0,.573.24A1.7,1.7,0,0,0,110.842,119.088Z" transform="translate(-90.545 -117.186)" fill="url(#linear-gradient-31)"/>
        <path id="패스_740" data-name="패스 740" d="M112.407,119.111l-.013.383h-1.479q.021-.526.022-1.184,0-.633-.022-1.079h1.41l-.018.38q-.522-.027-.945-.027c.01.16.017.351.017.57q.364,0,.776-.019v.364c-.27-.012-.53-.018-.776-.018,0,.235,0,.456.014.661C111.71,119.141,112.049,119.131,112.407,119.111Z" transform="translate(-90.005 -117.179)" fill="url(#linear-gradient-32)"/>
      </g>
      <g id="그룹_528" data-name="그룹 528" transform="translate(13.004 41.111)">
        <path id="패스_741" data-name="패스 741" d="M100.772,124.9a2.034,2.034,0,0,1-.966.177,1.118,1.118,0,0,1-.283-.053,1.152,1.152,0,0,0-.214.509c-.012.145.062.243.193.247a1.049,1.049,0,0,0,.674-.415.368.368,0,0,1,.3-.126c.078,0,.095.012.053.066-.065.086-.127.164-.206.27-.069.091-.118.161-.242.321v0a3.39,3.39,0,0,0,.416-.275c.091-.07.205-.156.264-.205.016-.017.044-.042.056-.029s-.019.04-.036.053a3.137,3.137,0,0,1-.258.218,4.2,4.2,0,0,1-.484.3,5.938,5.938,0,0,1-.506.662,1.814,1.814,0,0,1-1.1.665c-.125,0-.21-.053-.2-.171.021-.239.416-.514.638-.651.366-.226.51-.247.83-.451.083-.1.353-.482.353-.482a.906.906,0,0,1-.632.3c-.262,0-.406-.106-.427-.3a.924.924,0,0,1,.243-.645.505.505,0,0,1-.23-.391c0-.332.319-.514.674-.514a.952.952,0,0,1,.579.19,2.4,2.4,0,0,1,.7-.131c.156,0,.331.049.331.239C101.285,124.523,101.072,124.745,100.772,124.9Zm-1.118,1.188c-.239.156-.357.19-.74.435-.205.132-.5.391-.517.605a.1.1,0,0,0,.09.116.424.424,0,0,0,.254-.091,2.44,2.44,0,0,0,.526-.531c.157-.209.264-.361.387-.53Zm-.605-1.583a.472.472,0,0,0,.21.362,2,2,0,0,1,.366-.341,2.9,2.9,0,0,1,.526-.3.9.9,0,0,0-.513-.169C99.333,124.058,99.054,124.2,99.049,124.506Zm1.913-.415a1.443,1.443,0,0,0-.638.178.7.7,0,0,1,.082.213c.017.066.021.157,0,.157s0-.025-.057-.148a.594.594,0,0,0-.116-.178,2.88,2.88,0,0,0-.422.345,2.609,2.609,0,0,0-.273.334,1.037,1.037,0,0,0,.243.036,2.018,2.018,0,0,0,.922-.23c.258-.14.53-.354.53-.518S101.085,124.091,100.962,124.091Z" transform="translate(-98.227 -123.988)" fill="url(#linear-gradient-33)"/>
        <path id="패스_742" data-name="패스 742" d="M100.584,124.926a.93.93,0,0,0-.226.148c-.074.061-.144.122-.177.147-.017.016-.042.034-.045.029s0-.032.025-.053a2.352,2.352,0,0,1,.3-.243.612.612,0,0,1,.326-.11c.127,0,.156.012.106.065-.074.087-.144.173-.226.271a1.459,1.459,0,0,0-.152.218c-.021.034-.029.066-.017.079s.058,0,.1-.017a2.191,2.191,0,0,0,.313-.21c.18-.136.288-.251.432-.37.032-.029.06-.044.168-.044.132,0,.156,0,.106.061-.073.086-.135.178-.209.283-.065.09-.1.144-.131.193s-.03.074-.009.091a.148.148,0,0,0,.1-.009.993.993,0,0,0,.169-.123,2.156,2.156,0,0,0,.206-.173c.019-.016.04-.032.052-.019s-.023.04-.036.053a2.546,2.546,0,0,1-.251.213.674.674,0,0,1-.387.178c-.16,0-.188-.082-.18-.148a.436.436,0,0,1,.082-.173c.017-.021.042-.053.092-.112l-.009-.012c-.078.07-.18.152-.258.209a.988.988,0,0,1-.5.235c-.122,0-.164-.055-.16-.129a.426.426,0,0,1,.07-.164,1.839,1.839,0,0,1,.325-.362Z" transform="translate(-97.658 -123.737)" fill="url(#linear-gradient-34)"/>
        <path id="패스_743" data-name="패스 743" d="M102.308,124.973c.131-.142.173-.129.258-.129.114,0,.131.017.091.065-.075.087-.136.166-.218.271-.053.075-.1.136-.143.2-.017.034-.026.062-.005.079a.129.129,0,0,0,.1-.008.954.954,0,0,0,.177-.121c.087-.069.152-.127.2-.168.016-.017.038-.042.049-.029s-.016.044-.034.057c-.048.049-.167.156-.245.218a.645.645,0,0,1-.39.173c-.1,0-.157-.042-.166-.1a.207.207,0,0,1,.047-.149h0a.864.864,0,0,1-.5.248c-.135,0-.23-.042-.217-.178a.4.4,0,0,1,.1-.209h0a.107.107,0,0,0-.023.025c-.022.016-.047.034-.055.025s.012-.032.029-.049c.04-.04.095-.078.136-.116a2.58,2.58,0,0,1,.279-.164.818.818,0,0,1,.4-.087c.119.005.144.087.131.142Zm-.5.171c-.152.152-.23.271-.227.325.005.03.025.04.055.04a.709.709,0,0,0,.345-.192,1.087,1.087,0,0,0,.287-.366c0-.053-.029-.074-.074-.074A.87.87,0,0,0,101.806,125.144Z" transform="translate(-97.308 -123.738)" fill="url(#linear-gradient-35)"/>
        <path id="패스_744" data-name="패스 744" d="M103.233,124.988c0,.058-.091.152-.177.251a.958.958,0,0,0-.127.18c-.025.047-.025.074-.009.083s.055.008.091-.012a.912.912,0,0,0,.184-.121,2.481,2.481,0,0,0,.2-.168c.021-.013.04-.038.052-.029s-.019.044-.031.057a2.621,2.621,0,0,1-.247.213.672.672,0,0,1-.379.169c-.16.009-.205-.057-.205-.122a.47.47,0,0,1,.184-.28,2.641,2.641,0,0,0,.267-.234c.017-.045-.061-.036-.165-.032a.185.185,0,0,1-.09-.009c-.042.036-.1.1-.161.157s-.135.122-.184.168c-.029.025-.044.034-.053.025s.012-.036.032-.053c.053-.049.112-.1.177-.165s.123-.122.153-.148c-.038-.025-.043-.086,0-.139a.251.251,0,0,1,.171-.074.146.146,0,0,1,.116.04.667.667,0,0,0-.078.07c-.053.062-.04.086.012.091.108.008.256.008.258.082Z" transform="translate(-96.987 -123.775)" fill="url(#linear-gradient-36)"/>
        <path id="패스_745" data-name="패스 745" d="M104.1,124.973c.132-.142.173-.129.258-.129.117,0,.132.017.091.065-.073.087-.135.166-.217.271-.055.075-.1.136-.144.2-.016.034-.025.062,0,.079a.129.129,0,0,0,.1-.008.951.951,0,0,0,.175-.121c.087-.069.153-.127.2-.168.016-.017.038-.042.049-.029s-.017.044-.034.057c-.049.049-.167.156-.245.218a.645.645,0,0,1-.391.173c-.1,0-.156-.042-.164-.1a.2.2,0,0,1,.044-.149h0a.861.861,0,0,1-.5.248c-.135,0-.231-.042-.218-.178a.391.391,0,0,1,.1-.209h0a.148.148,0,0,0-.025.025c-.021.016-.045.034-.053.025s.012-.032.029-.049c.04-.04.095-.078.136-.116a2.68,2.68,0,0,1,.278-.164.826.826,0,0,1,.4-.087c.119.005.144.087.131.142Zm-.5.171c-.152.152-.23.271-.226.325,0,.03.025.04.055.04a.712.712,0,0,0,.344-.192,1.1,1.1,0,0,0,.288-.366c0-.053-.029-.074-.074-.074A.872.872,0,0,0,103.6,125.144Z" transform="translate(-96.773 -123.738)" fill="url(#linear-gradient-37)"/>
        <path id="패스_746" data-name="패스 746" d="M105.109,125.428a.807.807,0,0,1,.156-.252c.057-.074.119-.143.169-.2.017-.021.013-.045,0-.053s-.074.008-.108.021a2.243,2.243,0,0,0-.3.209c-.173.144-.287.23-.464.366a.426.426,0,0,1-.165.045c-.106,0-.127-.009-.1-.065a1.615,1.615,0,0,1,.171-.277c.061-.086.1-.131.16-.222.017-.017.03-.045.013-.061s-.04,0-.062.012a.977.977,0,0,0-.152.108c-.061.049-.13.106-.192.164-.021.016-.042.034-.053.025s.012-.036.029-.049c.057-.057.144-.135.217-.193a.706.706,0,0,1,.362-.173c.11,0,.152.049.152.108a.322.322,0,0,1-.078.173c-.057.082-.123.171-.169.238l.009.008c.114-.093.222-.184.357-.291a.965.965,0,0,1,.51-.235c.114,0,.169.045.16.123a.693.693,0,0,1-.152.251,1.759,1.759,0,0,0-.127.169c-.025.045-.029.074-.009.091a.14.14,0,0,0,.1-.009.951.951,0,0,0,.173-.126c.065-.051.156-.125.21-.17.014-.016.035-.032.048-.019s-.025.04-.036.053a3.2,3.2,0,0,1-.247.213.688.688,0,0,1-.391.169C105.133,125.575,105.1,125.5,105.109,125.428Z" transform="translate(-96.452 -123.738)" fill="url(#linear-gradient-38)"/>
        <path id="패스_747" data-name="패스 747" d="M105.707,125.181c-.061.058-.152.14-.192.177-.017.017-.04.03-.049.021s.013-.036.03-.049c.11-.1.249-.225.329-.3-.055,0-.082.005-.148.009-.03,0-.049,0-.045-.022s.053-.021.112-.023.082-.005.114-.005c.131-.156.3-.336.387-.427a.453.453,0,0,1,.312-.173c.062,0,.1.012.112.029a2.261,2.261,0,0,0-.247.267c-.095.11-.169.2-.251.3a2.251,2.251,0,0,1,.23,0c.025,0,.066.005.057.025s-.045.017-.074.017c-.09,0-.152,0-.245.005a3.216,3.216,0,0,0-.3.452c-.019.044-.032.09,0,.11a.136.136,0,0,0,.1-.012,1.18,1.18,0,0,0,.186-.121c.07-.056.148-.127.2-.168.016-.017.04-.038.052-.025s-.019.04-.031.053a2.424,2.424,0,0,1-.247.213.736.736,0,0,1-.425.178c-.122,0-.169-.062-.169-.123a.813.813,0,0,1,.209-.406Z" transform="translate(-96.067 -123.87)" fill="url(#linear-gradient-39)"/>
        <path id="패스_748" data-name="패스 748" d="M107.075,124.95c-.008.112-.144.193-.271.255a2.2,2.2,0,0,1-.408.127.207.207,0,0,0-.025.079c0,.066.038.093.1.093a.758.758,0,0,0,.4-.139,2.22,2.22,0,0,0,.258-.2c.021-.017.045-.038.053-.025s-.021.036-.032.049a1.571,1.571,0,0,1-.26.213,1.037,1.037,0,0,1-.518.182c-.23.008-.312-.075-.306-.178a.347.347,0,0,1,.093-.213h0a.1.1,0,0,0-.03.029c-.019.016-.044.034-.052.025s.012-.032.029-.049a1.68,1.68,0,0,1,.135-.11,1.973,1.973,0,0,1,.206-.127.97.97,0,0,1,.452-.129C107.026,124.831,107.079,124.889,107.075,124.95Zm-.657.341a.777.777,0,0,0,.282-.127.455.455,0,0,0,.183-.231c0-.036-.009-.057-.047-.057s-.11.038-.221.152a1.347,1.347,0,0,0-.2.26Z" transform="translate(-95.887 -123.738)" fill="url(#linear-gradient-40)"/>
        <path id="패스_749" data-name="패스 749" d="M107.838,124.95c-.006.112-.143.193-.27.255a2.229,2.229,0,0,1-.408.127.207.207,0,0,0-.025.079c0,.066.036.093.1.093a.758.758,0,0,0,.4-.139,2.019,2.019,0,0,0,.258-.2c.022-.017.045-.038.055-.025s-.021.036-.032.049a1.629,1.629,0,0,1-.26.213,1.045,1.045,0,0,1-.518.182c-.23.008-.312-.075-.308-.178a.342.342,0,0,1,.095-.213h-.005a.1.1,0,0,0-.027.029c-.022.016-.045.034-.055.025s.012-.032.029-.049a1.694,1.694,0,0,1,.136-.11,1.933,1.933,0,0,1,.205-.127.971.971,0,0,1,.453-.129C107.79,124.831,107.843,124.889,107.838,124.95Zm-.657.341a.791.791,0,0,0,.283-.127.451.451,0,0,0,.182-.231c0-.036-.009-.057-.045-.057s-.112.038-.222.152a1.46,1.46,0,0,0-.2.26Z" transform="translate(-95.66 -123.738)" fill="url(#linear-gradient-41)"/>
        <path id="패스_750" data-name="패스 750" d="M108.26,125.737a.235.235,0,0,1,.045-.153h0a.842.842,0,0,1-.5.252c-.136,0-.23-.042-.218-.178a.391.391,0,0,1,.1-.209h-.005a.143.143,0,0,0-.023.025c-.021.016-.045.034-.053.025s.012-.032.027-.049a1.6,1.6,0,0,1,.136-.11,1.3,1.3,0,0,1,.227-.14.966.966,0,0,1,.456-.116c.119.005.144.083.131.142h0a6.943,6.943,0,0,1,.518-.651,5.765,5.765,0,0,1,.49-.51.285.285,0,0,1,.23-.074c.038,0,.078.013.083.034-.112.105-.318.336-.469.509-.136.157-.277.325-.514.628-.127.166-.309.4-.349.473-.016.034-.025.062,0,.079a.126.126,0,0,0,.1-.008.914.914,0,0,0,.177-.121c.087-.069.153-.127.2-.168.016-.017.038-.042.049-.029s-.017.044-.034.057c-.049.049-.167.156-.245.218a.645.645,0,0,1-.391.173C108.322,125.835,108.265,125.79,108.26,125.737Zm0-.169a1.1,1.1,0,0,0,.288-.366c0-.053-.03-.074-.074-.074a.872.872,0,0,0-.387.267c-.152.152-.23.271-.226.325.005.03.025.04.055.04A.712.712,0,0,0,108.256,125.568Z" transform="translate(-95.435 -123.989)" fill="url(#linear-gradient-42)"/>
        <path id="패스_751" data-name="패스 751" d="M101.573,127.154a3.276,3.276,0,0,1-.9.036c-.535-.017-.947.161-.975.518a.4.4,0,0,0,.3.448c.042.013.055.008.049.019s-.038.017-.078.005a.5.5,0,0,1-.395-.493c.034-.395.416-.651,1.078-.6a3.745,3.745,0,0,0,.966.021c.057-.034.1-.066.131-.051s-.008.034-.045.079a2.8,2.8,0,0,0-.3.321c-.119.152-.206.266-.284.37l.539-.005a3.964,3.964,0,0,1,.3-.3,2.691,2.691,0,0,1,.569-.435,1.078,1.078,0,0,1,.5-.14.261.261,0,0,1,.266.144c.013.034.009.057,0,.061s-.009-.012-.021-.036a.242.242,0,0,0-.239-.114.7.7,0,0,0-.366.139,2.474,2.474,0,0,0-.374.349,3.916,3.916,0,0,0-.292.345c.112,0,.226,0,.334.012.032,0,.093,0,.091.021s-.055.017-.087.017c-.144,0-.283,0-.377,0-.187.234-.462.6-.445.728a.078.078,0,0,0,.078.069.558.558,0,0,0,.292-.127c.053-.042.164-.136.226-.19.017-.017.042-.036.055-.025s-.018.042-.03.053c-.062.058-.173.153-.23.195a.711.711,0,0,1-.4.164c-.16,0-.27-.057-.275-.19-.008-.214.275-.541.387-.678l-.526,0a2,2,0,0,1-1.452.911c-.2,0-.427-.086-.427-.319a.231.231,0,0,1,.23-.231.153.153,0,0,1,.156.169.172.172,0,0,1-.065.123.168.168,0,0,0-.053.1c.008.087.095.119.18.119.44,0,.835-.566,1.069-.866-.065,0-.156,0-.3,0-.029,0-.082.005-.078-.023,0-.013.065-.021.119-.025.095-.009.23-.018.3-.021a2.6,2.6,0,0,1,.814-.674Z" transform="translate(-97.937 -123.107)" fill="url(#linear-gradient-43)"/>
        <path id="패스_752" data-name="패스 752" d="M101.854,127.861a1.079,1.079,0,0,0-.225.148c-.074.061-.144.123-.178.148-.016.016-.04.034-.044.027s0-.032.025-.052a2.242,2.242,0,0,1,.3-.243.613.613,0,0,1,.326-.112c.129,0,.156.013.106.066-.074.086-.143.173-.226.271a1.556,1.556,0,0,0-.152.217c-.021.035-.029.066-.017.079s.058,0,.1-.017a2.055,2.055,0,0,0,.313-.21c.18-.135.287-.249.432-.367.032-.03.061-.047.167-.047.132,0,.156.005.106.062-.073.086-.135.177-.209.283-.065.091-.1.144-.131.193s-.03.074-.009.09a.152.152,0,0,0,.1-.007,1.082,1.082,0,0,0,.169-.125,2.159,2.159,0,0,0,.206-.173c.019-.016.04-.032.052-.019s-.023.04-.036.052a2.526,2.526,0,0,1-.251.216.684.684,0,0,1-.387.175c-.16,0-.188-.082-.18-.148a.436.436,0,0,1,.082-.173c.017-.019.042-.052.091-.11l-.008-.012c-.078.07-.18.152-.258.209a.986.986,0,0,1-.5.234c-.122,0-.164-.053-.16-.126a.415.415,0,0,1,.07-.165,1.8,1.8,0,0,1,.323-.362Z" transform="translate(-97.279 -122.861)" fill="url(#linear-gradient-44)"/>
        <path id="패스_753" data-name="패스 753" d="M103.524,128.363a.77.77,0,0,1,.157-.251c.057-.073.118-.144.169-.2a.037.037,0,0,0,0-.055c-.025-.012-.074.009-.108.022a2.088,2.088,0,0,0-.3.209c-.173.144-.287.23-.465.366a.419.419,0,0,1-.164.045c-.108,0-.129-.009-.1-.066a1.772,1.772,0,0,1,.173-.275c.062-.087.1-.131.16-.222.017-.017.029-.045.013-.062s-.042,0-.062.013a1.171,1.171,0,0,0-.152.106c-.061.049-.131.108-.193.165-.019.016-.042.034-.053.025s.012-.036.029-.049a2.53,2.53,0,0,1,.218-.193.687.687,0,0,1,.362-.173c.11,0,.152.051.152.106a.315.315,0,0,1-.079.173c-.057.082-.122.173-.167.239l.008.008c.116-.095.222-.184.357-.291a.964.964,0,0,1,.51-.235c.116,0,.169.045.16.123a.687.687,0,0,1-.151.251,1.834,1.834,0,0,0-.129.169c-.025.045-.029.074-.008.09a.14.14,0,0,0,.1-.006.973.973,0,0,0,.173-.129c.065-.049.156-.123.21-.169.016-.016.036-.032.048-.019s-.025.04-.036.052a3.17,3.17,0,0,1-.247.216.688.688,0,0,1-.391.167C103.55,128.511,103.517,128.433,103.524,128.363Z" transform="translate(-96.924 -122.861)" fill="url(#linear-gradient-45)"/>
        <path id="패스_754" data-name="패스 754" d="M104.545,128.671a.223.223,0,0,1,.044-.152h0a.83.83,0,0,1-.5.251c-.136,0-.231-.04-.219-.175a.4.4,0,0,1,.1-.21h0a.148.148,0,0,0-.025.025c-.021.016-.045.034-.053.025s.012-.034.029-.049a1.11,1.11,0,0,1,.136-.11,1.248,1.248,0,0,1,.225-.142.968.968,0,0,1,.456-.114c.119,0,.145.082.132.14h0a7.137,7.137,0,0,1,.519-.649,5.564,5.564,0,0,1,.488-.51.285.285,0,0,1,.23-.074c.038,0,.078.013.083.032-.112.106-.317.338-.47.51-.135.156-.275.325-.513.628-.127.165-.309.4-.349.473-.017.034-.025.062-.005.078a.121.121,0,0,0,.1-.008,1.111,1.111,0,0,0,.177-.119c.087-.07.152-.127.2-.168.018-.017.039-.042.049-.03s-.016.045-.031.057a3.235,3.235,0,0,1-.247.218.651.651,0,0,1-.391.173C104.6,128.77,104.547,128.725,104.545,128.671Zm-.005-.169a1.053,1.053,0,0,0,.288-.365c0-.053-.03-.074-.075-.074a.872.872,0,0,0-.386.267c-.152.152-.23.271-.227.325a.048.048,0,0,0,.055.04A.7.7,0,0,0,104.539,128.5Z" transform="translate(-96.544 -123.113)" fill="url(#linear-gradient-46)"/>
        <path id="패스_755" data-name="패스 755" d="M105.793,127.924c0,.057-.09.153-.177.251a.979.979,0,0,0-.127.18c-.025.045-.025.075-.006.082s.052.009.088-.012a.9.9,0,0,0,.186-.119c.086-.07.152-.122.2-.167.021-.013.042-.038.055-.03s-.022.045-.034.057a2.6,2.6,0,0,1-.247.216.676.676,0,0,1-.378.168c-.161.008-.206-.057-.206-.123a.467.467,0,0,1,.186-.279,2.431,2.431,0,0,0,.267-.235c.017-.044-.062-.036-.165-.031a.193.193,0,0,1-.091-.009c-.04.036-.1.1-.16.156s-.136.123-.186.169c-.027.025-.044.034-.052.025s.012-.036.032-.055c.053-.048.112-.1.177-.164s.123-.122.152-.147c-.038-.026-.042-.087,0-.142a.264.264,0,0,1,.174-.074.144.144,0,0,1,.114.042.667.667,0,0,0-.078.07c-.055.062-.042.086.013.091.105.008.254.008.257.082Z" transform="translate(-96.223 -122.899)" fill="url(#linear-gradient-47)"/>
        <path id="패스_756" data-name="패스 756" d="M106.68,127.886c-.008.11-.144.193-.271.254a2.3,2.3,0,0,1-.408.127.2.2,0,0,0-.025.078c0,.066.038.095.1.095a.77.77,0,0,0,.4-.139,2.252,2.252,0,0,0,.258-.2c.021-.017.045-.038.053-.025s-.021.036-.032.049a1.57,1.57,0,0,1-.26.213,1.025,1.025,0,0,1-.518.18c-.23.009-.312-.074-.308-.175a.352.352,0,0,1,.095-.216h0a.1.1,0,0,0-.029.03c-.021.016-.045.034-.053.025s.012-.034.029-.049a1.29,1.29,0,0,1,.135-.11,1.952,1.952,0,0,1,.206-.129.984.984,0,0,1,.452-.127C106.63,127.767,106.683,127.824,106.68,127.886Zm-.658.341a.8.8,0,0,0,.283-.127.455.455,0,0,0,.183-.231c0-.036-.009-.057-.047-.057s-.11.036-.221.152a1.468,1.468,0,0,0-.2.26Z" transform="translate(-96.006 -122.861)" fill="url(#linear-gradient-48)"/>
        <path id="패스_757" data-name="패스 757" d="M107.1,128.671a.216.216,0,0,1,.044-.152h0a.83.83,0,0,1-.5.251c-.136,0-.231-.04-.219-.175a.4.4,0,0,1,.1-.21h0a.148.148,0,0,0-.025.025c-.021.016-.045.034-.053.025s.013-.034.03-.049a1.015,1.015,0,0,1,.135-.11,1.268,1.268,0,0,1,.226-.142.961.961,0,0,1,.456-.114c.119,0,.144.082.131.14h.005a6.889,6.889,0,0,1,.518-.649,5.562,5.562,0,0,1,.488-.51.286.286,0,0,1,.23-.074c.038,0,.079.013.083.032-.112.106-.317.338-.469.51-.136.156-.275.325-.514.628-.127.165-.308.4-.349.473-.016.034-.025.062,0,.078a.118.118,0,0,0,.1-.008.957.957,0,0,0,.175-.119c.087-.07.153-.127.2-.168.017-.017.038-.042.049-.03s-.017.045-.032.057a3.232,3.232,0,0,1-.247.218.645.645,0,0,1-.39.173C107.162,128.77,107.105,128.725,107.1,128.671Zm-.005-.169a1.069,1.069,0,0,0,.288-.365c0-.053-.03-.074-.074-.074a.86.86,0,0,0-.387.267c-.151.152-.23.271-.226.325,0,.029.025.04.053.04A.7.7,0,0,0,107.1,128.5Z" transform="translate(-95.781 -123.113)" fill="url(#linear-gradient-49)"/>
        <path id="패스_758" data-name="패스 758" d="M101.663,130.328a.383.383,0,0,0-.271.105c-.049.045-.061.087-.074.083s.008-.053.057-.116a.4.4,0,0,1,.3-.112.238.238,0,0,1,.238.235c.025.338-.37.662-.837.653-.284,0-.506-.118-.49-.369.032-.5.727-.863,1.48-.863a1.6,1.6,0,0,1,.7.135,1.863,1.863,0,0,1,.314-.154,1.349,1.349,0,0,1,.435-.083.352.352,0,0,1,.3.116c.013.016.016.032,0,.036s-.008-.009-.025-.025a.375.375,0,0,0-.27-.087,1.069,1.069,0,0,0-.391.087,1.01,1.01,0,0,0-.26.165.532.532,0,0,1,.234.67.869.869,0,0,1-.765.321.965.965,0,0,1-.218-.022,2.073,2.073,0,0,1-.682.432v0a3.1,3.1,0,0,0,.44.062.628.628,0,0,0,.329-.045c.062-.04.062-.053.07-.045s0,.029-.038.066a.6.6,0,0,1-.391.139,2.709,2.709,0,0,1-.6-.074,2.56,2.56,0,0,1-.689.083c-.148,0-.37-.034-.37-.136s.188-.2.448-.19a3.952,3.952,0,0,1,.735.125,3.573,3.573,0,0,0,.584-.675,3.6,3.6,0,0,1,.757-.731,1.551,1.551,0,0,0-.647-.135,1.158,1.158,0,0,0-1.261.83.264.264,0,0,0,.267.325.774.774,0,0,0,.758-.617A.182.182,0,0,0,101.663,130.328Zm-.5,1.295a5.392,5.392,0,0,0-.567-.1c-.206-.016-.357-.008-.357.066s.213.1.325.1a2.472,2.472,0,0,0,.6-.062Zm.995-.557a.586.586,0,0,0,.152.01.676.676,0,0,0,.522-.347.435.435,0,0,0-.013-.545,8.325,8.325,0,0,0-.532.74c-.042.048-.087.1-.129.139Z" transform="translate(-97.64 -122.242)" fill="url(#linear-gradient-50)"/>
        <path id="패스_759" data-name="패스 759" d="M103.18,130.821c-.009.11-.144.195-.271.256a2.309,2.309,0,0,1-.406.126.2.2,0,0,0-.026.079.08.08,0,0,0,.1.09.742.742,0,0,0,.4-.135,1.974,1.974,0,0,0,.264-.2c.017-.017.045-.036.049-.025s-.017.038-.029.049a1.79,1.79,0,0,1-.26.218,1.014,1.014,0,0,1-.518.177c-.229.009-.308-.074-.308-.177a.572.572,0,0,1,.271-.386,1.081,1.081,0,0,1,.56-.19C103.131,130.7,103.184,130.76,103.18,130.821Zm-.658.343a.8.8,0,0,0,.284-.129.45.45,0,0,0,.18-.23c0-.036-.008-.058-.045-.058s-.11.038-.226.153a1.664,1.664,0,0,0-.193.26Z" transform="translate(-97.05 -121.985)" fill="url(#linear-gradient-51)"/>
        <path id="패스_760" data-name="패스 760" d="M103.784,130.859c0,.058-.09.153-.177.252a.919.919,0,0,0-.127.18c-.025.045-.025.074-.008.082s.053.009.09-.012a.9.9,0,0,0,.186-.121,2.416,2.416,0,0,0,.2-.167c.021-.012.042-.036.053-.029s-.021.045-.032.057a2.441,2.441,0,0,1-.247.214.663.663,0,0,1-.379.168c-.16.009-.205-.057-.205-.122a.48.48,0,0,1,.184-.28,2.182,2.182,0,0,0,.267-.235c.017-.044-.061-.036-.164-.031a.2.2,0,0,1-.091-.008c-.04.036-.1.1-.16.156s-.136.123-.186.169c-.029.023-.044.032-.053.023s.013-.036.034-.053c.053-.048.11-.1.177-.164s.123-.123.152-.148c-.038-.026-.042-.086,0-.14a.255.255,0,0,1,.173-.074.14.14,0,0,1,.114.042.967.967,0,0,0-.078.07c-.053.061-.04.086.013.09.106.008.254.008.258.082Z" transform="translate(-96.822 -122.023)" fill="url(#linear-gradient-52)"/>
        <path id="패스_761" data-name="패스 761" d="M103.678,131.269a.38.38,0,0,1,.1-.229h0a.453.453,0,0,0-.057.053c-.021.016-.047.032-.055.023s.013-.032.03-.049a1.74,1.74,0,0,1,.135-.11,1.911,1.911,0,0,1,.205-.127,1.056,1.056,0,0,1,.44-.127c.123,0,.177.078.16.156a.182.182,0,0,1-.139.14c-.07,0-.07-.058-.038-.116.049-.078.066-.127.017-.144s-.14.057-.254.178a.812.812,0,0,0-.231.365c-.008.057.029.095.095.095a.777.777,0,0,0,.374-.148,2.3,2.3,0,0,0,.23-.18c.017-.013.045-.038.058-.025s-.013.036-.034.053a1.706,1.706,0,0,1-.234.19,1.046,1.046,0,0,1-.526.188C103.768,131.455,103.678,131.381,103.678,131.269Z" transform="translate(-96.604 -121.985)" fill="url(#linear-gradient-53)"/>
        <path id="패스_762" data-name="패스 762" d="M105.422,130.821c-.008.11-.144.195-.271.256a2.287,2.287,0,0,1-.408.126.222.222,0,0,0-.025.079c0,.066.038.095.1.095a.758.758,0,0,0,.4-.14,1.908,1.908,0,0,0,.258-.2c.022-.017.045-.036.055-.025s-.021.038-.032.049a1.636,1.636,0,0,1-.26.214,1.047,1.047,0,0,1-.518.18c-.23.009-.312-.074-.308-.177a.352.352,0,0,1,.095-.214h0a.089.089,0,0,0-.029.03c-.021.016-.045.032-.055.023s.012-.032.03-.049a1.736,1.736,0,0,1,.135-.11,2.356,2.356,0,0,1,.205-.127.973.973,0,0,1,.453-.127C105.372,130.7,105.425,130.76,105.422,130.821Zm-.658.343a.8.8,0,0,0,.283-.129.447.447,0,0,0,.182-.23c0-.036-.008-.058-.045-.058s-.11.038-.222.153a1.415,1.415,0,0,0-.2.26Z" transform="translate(-96.381 -121.985)" fill="url(#linear-gradient-54)"/>
        <path id="패스_763" data-name="패스 763" d="M106.113,131.3a.784.784,0,0,1,.157-.251c.057-.074.119-.144.169-.2a.035.035,0,0,0-.005-.053c-.023-.012-.073.009-.106.021a2.241,2.241,0,0,0-.3.21c-.173.143-.288.23-.464.365a.41.41,0,0,1-.166.045c-.105,0-.127-.008-.1-.065a1.61,1.61,0,0,1,.171-.275c.062-.087.1-.132.161-.222.017-.017.029-.045.012-.064s-.04,0-.061.013a1,1,0,0,0-.152.108c-.062.049-.131.106-.193.165-.021.016-.042.032-.053.023s.012-.036.029-.049a2.53,2.53,0,0,1,.218-.193.7.7,0,0,1,.361-.171c.112,0,.152.049.152.105a.324.324,0,0,1-.077.174c-.058.082-.123.173-.169.239l.008.008c.116-.095.222-.186.357-.292a.972.972,0,0,1,.51-.234c.114,0,.169.044.16.123a.7.7,0,0,1-.152.251,2.1,2.1,0,0,0-.127.169c-.025.044-.029.074-.009.09a.146.146,0,0,0,.1-.008.919.919,0,0,0,.173-.127c.066-.049.156-.123.209-.169.017-.016.036-.032.049-.021s-.025.042-.036.053c-.045.045-.166.152-.247.214a.683.683,0,0,1-.391.167C106.137,131.446,106.1,131.369,106.113,131.3Z" transform="translate(-96.152 -121.985)" fill="url(#linear-gradient-55)"/>
        <path id="패스_764" data-name="패스 764" d="M106.712,131.052c-.061.058-.152.14-.193.177-.016.018-.04.03-.048.021s.012-.036.027-.049c.112-.1.252-.225.33-.3-.053,0-.082,0-.148.008-.029,0-.049,0-.045-.021s.053-.021.112-.023.082-.007.116-.007c.13-.156.295-.336.386-.427a.45.45,0,0,1,.313-.171c.061,0,.1.012.109.029a2.483,2.483,0,0,0-.245.266c-.095.112-.169.2-.251.3a2.284,2.284,0,0,1,.231,0c.023,0,.065.007.057.026s-.047.017-.074.017c-.092,0-.152,0-.247,0a3.518,3.518,0,0,0-.3.453c-.019.044-.032.09,0,.11a.136.136,0,0,0,.1-.012,1.044,1.044,0,0,0,.186-.121c.07-.056.148-.126.2-.167.017-.017.042-.036.053-.025s-.021.042-.034.053a2.16,2.16,0,0,1-.247.214.732.732,0,0,1-.422.177c-.123,0-.169-.061-.169-.123a.818.818,0,0,1,.209-.406Z" transform="translate(-95.767 -122.117)" fill="url(#linear-gradient-56)"/>
      </g>
    </g>
    <g id="_00" data-name="00" transform="translate(93.459 109.002)">
      <g id="그룹_529" data-name="그룹 529">
        <path id="패스_765" data-name="패스 765" d="M97.639,107.987c0-.1.171-.235.354-.36.953-.645,2-1.571,2-2.592,0-.61-.161-1.091-.766-1.091a1.069,1.069,0,0,0-.918.634.325.325,0,0,1-.326.212c-.1,0-.148-.075-.148-.177a1.381,1.381,0,0,1,1.507-1.136,1.432,1.432,0,0,1,1.632,1.443,3.478,3.478,0,0,1-1.787,2.536h1.375c.131,0,.091-.354.343-.354.166,0,.24.091.24.354v.417c0,.193-.16.279-.354.279H97.805A.146.146,0,0,1,97.639,107.987Z" transform="translate(-88.568 -103.478)" fill="#f9be03"/>
        <path id="패스_766" data-name="패스 766" d="M102.449,103.478c1.228,0,1.867,1.066,1.867,2.453s-.639,2.393-1.867,2.393-1.867-1-1.867-2.393S101.222,103.478,102.449,103.478Zm0,4.35c.457,0,.879-.651.884-1.9s-.427-1.957-.884-1.957-.886.708-.886,1.957S101.992,107.828,102.449,107.828Z" transform="translate(-87.69 -103.478)" fill="#f9be03"/>
        <path id="패스_767" data-name="패스 767" d="M106.587,107.963c0,.154-.132.177-.388.177h-1.187c-.39,0-.543-.022-.543-.177,0-.212.644-.188.644-.366v-3.288c0-.069-.393-.005-.577-.005-.125,0-.234-.017-.234-.138,0-.074.081-.131.206-.205a3.375,3.375,0,0,1,1.267-.44c.175,0,.256.148.256.326v3.763C106.033,107.78,106.587,107.792,106.587,107.963Z" transform="translate(-86.579 -103.465)" fill="#f9be03"/>
        <path id="패스_768" data-name="패스 768" d="M109.515,105.63a1.324,1.324,0,0,1,.936,1.249c0,.618-.457,1.445-1.855,1.445s-1.855-.827-1.855-1.272a1.182,1.182,0,0,1,.8-1.08,1.215,1.215,0,0,1-.639-1.1c0-.617.37-1.392,1.654-1.392s1.656.775,1.656,1.222A1.038,1.038,0,0,1,109.515,105.63Zm-1.41.605a1.079,1.079,0,0,0-.543.873c0,.435.531.691,1.034.691s1.034-.256,1.034-.691C109.629,106.618,108.836,106.5,108.1,106.235Zm.812-.828a.842.842,0,0,0,.473-.765c0-.417-.36-.639-.834-.639s-.832.222-.832.639S108.293,105.208,108.916,105.406Z" transform="translate(-85.852 -103.478)" fill="#f9be03"/>
        <path id="패스_769" data-name="패스 769" d="M90.653,109c0-.171.143-.217.428-.217h1.25c1.495,0,2.323.427,2.323,1.432s-.828,1.422-2.323,1.422h-.308v1.13c0,.2.587.092.587.423,0,.171-.171.217-.6.217h-.931c-.286,0-.428-.045-.428-.217,0-.222.36-.217.36-.405v-3.38C91.013,109.22,90.653,109.228,90.653,109Zm1.371.308v1.82h.308c.844,0,1.336-.4,1.341-.913s-.5-.908-1.341-.908Z" transform="translate(-90.653 -101.893)" fill="#f9be03"/>
        <path id="패스_770" data-name="패스 770" d="M94.035,109c0-.171.143-.217.427-.217h.874c.287,0,.428.045.428.217,0,.216-.343.216-.36.393v3.489h1.765c.291,0,.13-.988.5-.988.183,0,.252.16.252.422v.948a.146.146,0,0,1-.148.143H94.462c-.284,0-.427-.045-.427-.217,0-.222.36-.217.36-.405v-3.38C94.395,109.22,94.035,109.228,94.035,109Z" transform="translate(-89.644 -101.893)" fill="#f9be03"/>
        <path id="패스_771" data-name="패스 771" d="M101.443,112.789c.057.177.388.183.388.405,0,.16-.155.212-.41.217h-1.045c-.284,0-.428-.045-.428-.217,0-.286.526-.24.48-.377l-.336-1.017H98.538l-.344,1c-.051.148.479.1.479.388,0,.171-.143.217-.427.217h-.605c-.286,0-.457-.045-.457-.217,0-.222.326-.229.388-.405l1.319-3.859c.045-.138.091-.138.205-.138h.839c.116,0,.206.022.24.138Zm-2.716-1.541h1.182l-.583-1.759Z" transform="translate(-88.704 -101.892)" fill="#f9be03"/>
        <path id="패스_772" data-name="패스 772" d="M102.913,111.065l1.063-1.679c.073-.119-.48-.1-.48-.382,0-.171.143-.217.427-.217h.6c.284,0,.456.045.456.217,0,.193-.262.205-.417.451l-1.336,2.124v1.227c.018.171.36.171.36.388,0,.171-.143.217-.427.217h-.874c-.286,0-.428-.045-.428-.217,0-.217.343-.217.36-.388v-.953l-1.444-2.467c-.091-.148-.383-.171-.383-.382,0-.155.143-.217.39-.217h1.187c.286,0,.428.045.428.217,0,.279-.549.262-.487.365Z" transform="translate(-87.747 -101.893)" fill="#f9be03"/>
        <path id="패스_773" data-name="패스 773" d="M104.479,110.948c-.121,0-.166-.045-.166-.193v-.234c0-.148.045-.193.166-.193h1.495c.121,0,.166.045.166.193v.234c0,.148-.045.193-.166.193Z" transform="translate(-86.576 -101.434)" fill="#f9be03"/>
        <path id="패스_774" data-name="패스 774" d="M106.2,111.155a2.2,2.2,0,0,1,2.266-2.442,2.721,2.721,0,0,1,1.05.205c.161.064.155-.148.349-.148.171,0,.188.126.188.41v.834c0,.264-.074.354-.24.354s-.217-.153-.274-.354a1.031,1.031,0,0,0-1.074-.747c-.627,0-1.256.639-1.256,1.888s.628,1.827,1.256,1.827a1.224,1.224,0,0,0,1.217-.747c.057-.2.114-.354.274-.354s.239.091.239.354v.5c0,.541-.918.8-1.73.8A2.154,2.154,0,0,1,106.2,111.155Z" transform="translate(-86.012 -101.916)" fill="#f9be03"/>
        <path id="패스_775" data-name="패스 775" d="M111.9,113.508a1.8,1.8,0,0,1-1.9-1.985V109.41c0-.19-.36-.182-.36-.405,0-.171.143-.217.428-.217h.874c.284,0,.484.045.484.217,0,.274-.4.223-.417.393v2.249c0,.719.365,1.308,1.131,1.308s1.13-.656,1.13-1.375V109.4c-.023-.17-.417-.119-.417-.393,0-.171.2-.217.486-.217h.388c.286,0,.428.045.428.217,0,.216-.343.216-.36.393v2.124A1.757,1.757,0,0,1,111.9,113.508Z" transform="translate(-84.985 -101.893)" fill="#f9be03"/>
        <path id="패스_776" data-name="패스 776" d="M113.462,109c0-.171.143-.217.428-.217h1.25c1.5,0,2.323.427,2.323,1.432s-.827,1.422-2.323,1.422h-.308v1.13c0,.2.588.092.588.423,0,.171-.173.217-.6.217h-.931c-.286,0-.428-.045-.428-.217,0-.222.361-.217.361-.405v-3.38C113.823,109.22,113.462,109.228,113.462,109Zm1.371.308v1.82h.308c.845,0,1.336-.4,1.341-.913s-.5-.908-1.341-.908Z" transform="translate(-83.846 -101.893)" fill="#f9be03"/>
      </g>
    </g>
  </g>
</svg>
