<svg xmlns="http://www.w3.org/2000/svg" width="222.391" height="70.327" viewBox="0 0 222.391 70.327">
  <g id="그룹_957" data-name="그룹 957" transform="translate(-69 -196.673)">
    <g id="그룹_940" data-name="그룹 940" transform="translate(69 196.673)">
      <g id="그룹_938" data-name="그룹 938" transform="translate(124.199 53.978)">
        <g id="그룹_956" data-name="그룹 956">
          <path id="패스_1442" data-name="패스 1442" d="M195.874,326.1h-.65V315.707h.65v1.158a3.124,3.124,0,0,1,2.607-1.3,3.173,3.173,0,0,1,3.224,3.419,3.28,3.28,0,0,1-3.256,3.549,2.893,2.893,0,0,1-2.574-1.367Zm5.146-7.116a2.6,2.6,0,1,0-5.178-.033c0,1.661.912,2.964,2.588,2.964S201.02,320.609,201.02,318.981Z" transform="translate(-195.224 -310.481)" fill="#231815"/>
          <path id="패스_1443" data-name="패스 1443" d="M201.786,311.989V323.86h-.651V311.989Z" transform="translate(-192.729 -311.989)" fill="#231815"/>
          <path id="패스_1444" data-name="패스 1444" d="M208.775,315.707h.65v6.645h-.65v-1.189a3.036,3.036,0,0,1-2.59,1.367,3.256,3.256,0,0,1-3.239-3.5,3.192,3.192,0,0,1,3.239-3.468,3.033,3.033,0,0,1,2.59,1.3Zm-5.148,3.273a2.7,2.7,0,0,0,2.607,2.931,2.667,2.667,0,0,0,2.572-2.931,2.6,2.6,0,1,0-5.179,0Z" transform="translate(-191.965 -310.481)" fill="#231815"/>
          <path id="패스_1445" data-name="패스 1445" d="M211.582,322.423l-3.161-6.759h.751l2.784,5.911,2.426-5.911h.749l-4.363,10.389h-.751Z" transform="translate(-189.655 -310.438)" fill="#231815"/>
          <path id="패스_1446" data-name="패스 1446" d="M223.4,319.046a3.485,3.485,0,1,1-3.484-3.484A3.428,3.428,0,0,1,223.4,319.046Zm-.684,0a2.8,2.8,0,1,0-2.8,2.865A2.785,2.785,0,0,0,222.716,319.046Z" transform="translate(-186.274 -310.481)" fill="#231815"/>
          <path id="패스_1447" data-name="패스 1447" d="M222.687,315.707h.65v1.042a2.222,2.222,0,0,1,2.035-1.187,2.064,2.064,0,0,1,1.841.927,3.2,3.2,0,0,1,.324,1.678v4.185h-.65v-4.185a2.458,2.458,0,0,0-.26-1.335,1.412,1.412,0,0,0-1.3-.651,1.749,1.749,0,0,0-1.63.927,3.632,3.632,0,0,0-.358,1.792v3.453h-.65Z" transform="translate(-183.634 -310.481)" fill="#231815"/>
          <path id="패스_1448" data-name="패스 1448" d="M231.325,316.988v6.027h-.653v-6.027h-.732v-.619h.732v-2.378h.653v2.378h1.155v.619Z" transform="translate(-180.573 -311.144)" fill="#231815"/>
          <path id="패스_1449" data-name="패스 1449" d="M232.642,311.989h.653v6.268a2.218,2.218,0,0,1,2.035-1.187,2.067,2.067,0,0,1,1.842.927,3.2,3.2,0,0,1,.324,1.678v4.185h-.65v-4.185a2.458,2.458,0,0,0-.26-1.335,1.415,1.415,0,0,0-1.3-.651,1.747,1.747,0,0,0-1.628.927,3.616,3.616,0,0,0-.358,1.792v3.453h-.653Z" transform="translate(-179.433 -311.989)" fill="#231815"/>
          <path id="패스_1451" data-name="패스 1451" d="M246.208,326.1h-.651V315.707h.651v1.158a3.121,3.121,0,0,1,2.605-1.3,3.173,3.173,0,0,1,3.224,3.419,3.28,3.28,0,0,1-3.256,3.549,2.89,2.89,0,0,1-2.572-1.367Zm5.145-7.116a2.6,2.6,0,1,0-5.178-.033c0,1.661.912,2.964,2.588,2.964S251.353,320.609,251.353,318.981Z" transform="translate(-173.983 -310.481)" fill="#231815"/>
          <path id="패스_1452" data-name="패스 1452" d="M251.286,314.286a.586.586,0,1,1,.584.6A.577.577,0,0,1,251.286,314.286Zm.912,2.214v6.645h-.653V316.5Z" transform="translate(-171.565 -311.274)" fill="#231815"/>
          <path id="패스_1453" data-name="패스 1453" d="M254.48,316.988v6.027h-.653v-6.027H253.1v-.619h.731v-2.378h.653v2.378h1.156v.619Z" transform="translate(-170.801 -311.144)" fill="#231815"/>
          <path id="패스_1454" data-name="패스 1454" d="M261.249,317.271a3.033,3.033,0,0,0-2.3-1.091,2.868,2.868,0,0,0-.031,5.731,3.345,3.345,0,0,0,2.41-1.189v.88a3.626,3.626,0,0,1-2.427.927,3.484,3.484,0,0,1,.048-6.968,3.491,3.491,0,0,1,2.3.846Z" transform="translate(-169.786 -310.481)" fill="#231815"/>
          <path id="패스_1455" data-name="패스 1455" d="M260.864,311.989h.65v6.268a2.22,2.22,0,0,1,2.035-1.187,2.069,2.069,0,0,1,1.841.927,3.216,3.216,0,0,1,.324,1.678v4.185h-.65v-4.185a2.459,2.459,0,0,0-.262-1.335,1.411,1.411,0,0,0-1.3-.651,1.746,1.746,0,0,0-1.628.927,3.616,3.616,0,0,0-.358,1.792v3.453h-.65Z" transform="translate(-167.523 -311.989)" fill="#231815"/>
          <text id="e" transform="translate(58.801 12.349)" fill="#221815" font-size="14" font-family="SegoeUI-Light, Segoe UI" font-weight="300"><tspan x="0" y="0">e</tspan></text>
        </g>
      </g>
      <g id="그룹_939" data-name="그룹 939" transform="translate(89.997 57.993)">
        <path id="패스_1456" data-name="패스 1456" d="M173.16,325.82h-1.988V315.041h1.988v.912a2.675,2.675,0,0,1,2.3-1.14,3.371,3.371,0,0,1,2.41.944,3.81,3.81,0,0,1,1.058,2.8,3.768,3.768,0,0,1-1.108,2.85,3.455,3.455,0,0,1-2.393.911,2.67,2.67,0,0,1-2.262-1.139Zm.471-8.777a1.872,1.872,0,0,0-.668,1.514,2.011,2.011,0,0,0,.653,1.531,1.932,1.932,0,0,0,1.3.472,1.888,1.888,0,0,0,1.335-.506,2.068,2.068,0,0,0,.62-1.5,2.128,2.128,0,0,0-.6-1.482,2.081,2.081,0,0,0-1.352-.5A1.8,1.8,0,0,0,173.631,317.043Z" transform="translate(-171.172 -314.812)" fill="#23e6ff"/>
        <path id="패스_1457" data-name="패스 1457" d="M184.338,315.806a3.794,3.794,0,0,1,0,5.519,4.582,4.582,0,0,1-5.7,0,3.8,3.8,0,0,1,0-5.519,4.582,4.582,0,0,1,5.7,0Zm-.863,2.767a1.987,1.987,0,1,0-1.987,1.988A1.968,1.968,0,0,0,183.475,318.573Z" transform="translate(-168.522 -314.812)" fill="#23e6ff"/>
        <path id="패스_1458" data-name="패스 1458" d="M186.2,325.82H184.21V315.041H186.2v.912a2.673,2.673,0,0,1,2.3-1.14,3.373,3.373,0,0,1,2.41.944,4.229,4.229,0,0,1-.05,5.651,3.455,3.455,0,0,1-2.393.911,2.67,2.67,0,0,1-2.262-1.139Zm.471-8.777a1.872,1.872,0,0,0-.668,1.514,2.011,2.011,0,0,0,.653,1.531,1.932,1.932,0,0,0,1.3.472,1.881,1.881,0,0,0,1.334-.506,2.064,2.064,0,0,0,.621-1.5,2.128,2.128,0,0,0-.6-1.482,2.084,2.084,0,0,0-1.352-.5A1.8,1.8,0,0,0,186.669,317.043Z" transform="translate(-165.67 -314.812)" fill="#23e6ff"/>
        <path id="패스_1459" data-name="패스 1459" d="M192.366,318.293a1.271,1.271,0,1,1-1.27,1.271A1.252,1.252,0,0,1,192.366,318.293Z" transform="translate(-162.764 -313.343)" fill="#23e6ff"/>
      </g>
      <path id="패스_1460" data-name="패스 1460" d="M201.538,325.814a2.038,2.038,0,0,1-1.546-3.365,26.859,26.859,0,1,0-47.245-17.488,2.037,2.037,0,1,1-4.074,0A30.933,30.933,0,1,1,203.084,325.1,2.032,2.032,0,0,1,201.538,325.814Z" transform="translate(-90.67 -274.03)" fill="#327dff"/>
      <path id="패스_1461" data-name="패스 1461" d="M161.175,333.5a2.037,2.037,0,0,1-2.038-2.036V299.312a2.037,2.037,0,0,1,4.074,0v32.149A2.037,2.037,0,0,1,161.175,333.5Z" transform="translate(-86.254 -264.22)" fill="#327dff"/>
      <path id="패스_1462" data-name="패스 1462" d="M158.023,280.4l-2.881,2.88h0a26.86,26.86,0,0,1-37.985,37.986h0l-2.88,2.881h0A30.933,30.933,0,0,0,158.023,280.4Z" transform="translate(-105.186 -271.341)" fill="#327dff"/>
      <path id="패스_1463" data-name="패스 1463" d="M116.975,283.085a30.736,30.736,0,0,0-9.06,21.872,28.414,28.414,0,0,0,.21,3.218,2.014,2.014,0,0,0-.242.943v32.149a2.036,2.036,0,0,0,4.073,0v-21.5l.39,1.092a31.141,31.141,0,0,0,4.629,5.968l2.88-2.881a26.626,26.626,0,0,1-7.508-14.78v-.051a2.023,2.023,0,0,0-.092-.575,27.242,27.242,0,0,1-.266-3.586,26.859,26.859,0,0,1,45.852-18.992l2.881-2.88A30.969,30.969,0,0,0,116.975,283.085Z" transform="translate(-107.884 -274.026)" fill="#23e6ff"/>
    </g>
  </g>
</svg>
