<svg xmlns="http://www.w3.org/2000/svg" width="15.954" height="15.018" viewBox="0 0 15.954 15.018">
  <g id="그룹_621" data-name="그룹 621" transform="translate(-486.037 -458.207)">
    <path id="패스_1054" data-name="패스 1054" d="M494.012,460.8a4.26,4.26,0,0,1,.761-1.2,4.127,4.127,0,0,1,7.128,1.985,5.964,5.964,0,0,1-.376,3.239,12.056,12.056,0,0,1-2.354,3.828,25.037,25.037,0,0,1-5.285,4.518.22.22,0,0,1-.29,0,23.12,23.12,0,0,1-5.419-5.156,10.78,10.78,0,0,1-1.943-4.02,5.359,5.359,0,0,1,.047-3.032,4.127,4.127,0,0,1,7.6-.423Z" transform="translate(0)" fill="#fff"/>
  </g>
</svg>
