<svg xmlns="http://www.w3.org/2000/svg" width="107.998" height="61.901" viewBox="0 0 107.998 61.901"><g transform="translate(-313.441 -274.03)"><g transform="translate(393.856 325.847)"><path d="M378.505,324.648H376.73v-9.631h1.775v.814a2.392,2.392,0,0,1,2.051-1.019,3.01,3.01,0,0,1,2.154.844,3.774,3.774,0,0,1-.044,5.049,3.082,3.082,0,0,1-2.137.814,2.389,2.389,0,0,1-2.023-1.018Zm.422-7.842a1.672,1.672,0,0,0-.6,1.353,1.8,1.8,0,0,0,.583,1.368,1.726,1.726,0,0,0,1.164.422,1.681,1.681,0,0,0,1.192-.452,1.844,1.844,0,0,0,.555-1.338,1.9,1.9,0,0,0-.539-1.324,1.862,1.862,0,0,0-1.208-.451A1.606,1.606,0,0,0,378.927,316.806Z" transform="translate(-376.73 -314.812)" fill="#23e6ff"/><path d="M389.163,315.7a3.393,3.393,0,0,1,0,4.931,4.1,4.1,0,0,1-5.094,0,3.4,3.4,0,0,1,0-4.931,4.1,4.1,0,0,1,5.094,0Zm-.771,2.473a1.776,1.776,0,1,0-1.775,1.776A1.758,1.758,0,0,0,388.391,318.173Z" transform="translate(-375.031 -314.812)" fill="#23e6ff"/><path d="M391.543,324.648h-1.775v-9.631h1.775v.814a2.392,2.392,0,0,1,2.051-1.019,3.012,3.012,0,0,1,2.154.844,3.778,3.778,0,0,1-.044,5.049,3.082,3.082,0,0,1-2.137.814,2.389,2.389,0,0,1-2.023-1.018Zm.422-7.842a1.672,1.672,0,0,0-.6,1.353,1.8,1.8,0,0,0,.582,1.368,1.733,1.733,0,0,0,1.165.422,1.681,1.681,0,0,0,1.192-.452,1.843,1.843,0,0,0,.554-1.338,1.9,1.9,0,0,0-.537-1.324,1.865,1.865,0,0,0-1.208-.451A1.6,1.6,0,0,0,391.965,316.806Z" transform="translate(-373.202 -314.812)" fill="#23e6ff"/><path d="M397.789,318.293a1.135,1.135,0,1,1-1.136,1.136A1.118,1.118,0,0,1,397.789,318.293Z" transform="translate(-371.339 -313.87)" fill="#23e6ff"/></g><path d="M401.465,320.3a1.821,1.821,0,0,1-1.38-3.006,24,24,0,1,0-42.216-15.626,1.82,1.82,0,1,1-3.639,0,27.639,27.639,0,1,1,48.617,18A1.818,1.818,0,0,1,401.465,320.3Z" transform="translate(11.038)" fill="#327dff"/><path d="M366.515,329.641a1.819,1.819,0,0,1-1.82-1.819V299.1a1.82,1.82,0,0,1,3.639,0v28.726A1.819,1.819,0,0,1,366.515,329.641Z" transform="translate(13.869 6.29)" fill="#327dff"/><path d="M358.921,280.4l-2.573,2.573h0a24,24,0,0,1-33.94,33.941h0l-2.573,2.574h0A27.638,27.638,0,1,0,358.921,280.4Z" transform="translate(1.73 1.724)" fill="#327dff"/><path d="M321.565,282.122a27.459,27.459,0,0,0-8.1,19.543,25.39,25.39,0,0,0,.189,2.875,1.8,1.8,0,0,0-.217.842v28.726a1.82,1.82,0,0,0,3.64,0V314.9l.348.976a27.725,27.725,0,0,0,4.136,5.333l2.573-2.574a23.791,23.791,0,0,1-6.709-13.207v-.046a1.807,1.807,0,0,0-.083-.513,24.122,24.122,0,0,1-.238-3.2,24,24,0,0,1,40.969-16.97l2.573-2.573A27.67,27.67,0,0,0,321.565,282.122Z" transform="translate(0 0.003)" fill="#23e6ff"/></g></svg>