<svg xmlns="http://www.w3.org/2000/svg" width="146.683" height="17.301" viewBox="0 0 146.683 17.301"><g transform="translate(-114 -44.84)"><g transform="translate(151.894 44.84)"><path d="M195.944,246.912h-.72V235.4h.72v1.282a3.461,3.461,0,0,1,2.888-1.443,3.515,3.515,0,0,1,3.572,3.788,3.634,3.634,0,0,1-3.608,3.932,3.208,3.208,0,0,1-2.852-1.514Zm5.7-7.884a2.876,2.876,0,1,0-5.736-.036c0,1.84,1.01,3.283,2.867,3.283S201.646,240.832,201.646,239.029Z" transform="translate(-195.224 -229.612)" fill="#3c3c3c"/><path d="M201.857,231.668v13.151h-.722V231.668Z" transform="translate(-191.822 -231.668)" fill="#3c3c3c"/><path d="M209.4,235.4h.72v7.361h-.72v-1.316a3.364,3.364,0,0,1-2.869,1.514,3.607,3.607,0,0,1-3.589-3.877,3.536,3.536,0,0,1,3.589-3.843,3.36,3.36,0,0,1,2.869,1.443Zm-5.7,3.627a2.993,2.993,0,0,0,2.888,3.247,2.955,2.955,0,0,0,2.85-3.247,2.878,2.878,0,1,0-5.738,0Z" transform="translate(-190.78 -229.612)" fill="#3c3c3c"/><path d="M211.923,242.831l-3.5-7.488h.832l3.085,6.549,2.688-6.549h.83l-4.834,11.511h-.832Z" transform="translate(-187.629 -229.553)" fill="#3c3c3c"/><path d="M224.152,239.1a3.861,3.861,0,1,1-3.86-3.86A3.8,3.8,0,0,1,224.152,239.1Zm-.758,0a3.1,3.1,0,1,0-3.1,3.175A3.085,3.085,0,0,0,223.395,239.1Z" transform="translate(-183.02 -229.612)" fill="#3c3c3c"/><path d="M222.687,235.4h.72v1.155a2.462,2.462,0,0,1,2.255-1.316,2.287,2.287,0,0,1,2.04,1.027,3.548,3.548,0,0,1,.359,1.859v4.635h-.72v-4.635a2.724,2.724,0,0,0-.288-1.479,1.565,1.565,0,0,0-1.443-.722,1.938,1.938,0,0,0-1.806,1.027,4.017,4.017,0,0,0-.4,1.984v3.825h-.72Z" transform="translate(-179.419 -229.612)" fill="#3c3c3c"/><path d="M231.475,236.991v6.675h-.723v-6.675h-.811v-.685h.811v-2.634h.723v2.634h1.279v.685Z" transform="translate(-175.245 -230.515)" fill="#3c3c3c"/><path d="M232.642,231.668h.723v6.945a2.458,2.458,0,0,1,2.255-1.316,2.29,2.29,0,0,1,2.04,1.027,3.548,3.548,0,0,1,.359,1.859v4.635h-.72v-4.635a2.724,2.724,0,0,0-.288-1.479,1.568,1.568,0,0,0-1.445-.722,1.935,1.935,0,0,0-1.8,1.027,4,4,0,0,0-.4,1.984v3.825h-.723Z" transform="translate(-173.69 -231.668)" fill="#3c3c3c"/><path d="M237.811,239.172a2.957,2.957,0,0,0,2.924,3.1A2.809,2.809,0,0,0,243.3,240.6l.613.361a3.721,3.721,0,1,1-3.283-5.717c1.984,0,3.482,1.587,3.482,3.931Zm5.539-.685a2.763,2.763,0,0,0-2.724-2.56,2.812,2.812,0,0,0-2.76,2.56Z" transform="translate(-171.151 -229.612)" fill="#3c3c3c"/><path d="M246.279,246.912h-.722V235.4h.722v1.282a3.458,3.458,0,0,1,2.886-1.443,3.515,3.515,0,0,1,3.572,3.788,3.634,3.634,0,0,1-3.608,3.932,3.205,3.205,0,0,1-2.85-1.514Zm5.7-7.884a2.876,2.876,0,1,0-5.736-.036c0,1.84,1.01,3.283,2.867,3.283S251.979,240.832,251.979,239.029Z" transform="translate(-166.258 -229.612)" fill="#3c3c3c"/><path d="M251.286,234.03a.649.649,0,1,1,.648.668A.639.639,0,0,1,251.286,234.03Zm1.01,2.453v7.361h-.723v-7.361Z" transform="translate(-162.961 -230.693)" fill="#3c3c3c"/><path d="M254.629,236.991v6.675h-.723v-6.675h-.81v-.685h.81v-2.634h.723v2.634h1.281v.685Z" transform="translate(-161.919 -230.515)" fill="#3c3c3c"/><path d="M261.869,237.135a3.355,3.355,0,0,0-2.544-1.208,3.177,3.177,0,0,0-.035,6.349,3.706,3.706,0,0,0,2.67-1.317v.975a4.017,4.017,0,0,1-2.689,1.027,3.861,3.861,0,0,1,.054-7.72,3.868,3.868,0,0,1,2.544.937Z" transform="translate(-160.535 -229.612)" fill="#3c3c3c"/><path d="M260.864,231.668h.72v6.945a2.46,2.46,0,0,1,2.255-1.316,2.292,2.292,0,0,1,2.04,1.027,3.563,3.563,0,0,1,.359,1.859v4.635h-.72v-4.635a2.724,2.724,0,0,0-.29-1.479,1.563,1.563,0,0,0-1.443-.722,1.935,1.935,0,0,0-1.8,1.027,4,4,0,0,0-.4,1.984v3.825h-.72Z" transform="translate(-157.449 -231.668)" fill="#3c3c3c"/></g><g transform="translate(114 49.287)"><path d="M173.375,246.687h-2.2V234.745h2.2v1.01a2.964,2.964,0,0,1,2.543-1.264,3.735,3.735,0,0,1,2.67,1.046,4.221,4.221,0,0,1,1.172,3.1,4.174,4.174,0,0,1-1.227,3.157,3.828,3.828,0,0,1-2.652,1.01,2.958,2.958,0,0,1-2.507-1.262Zm.521-9.724a2.074,2.074,0,0,0-.74,1.678,2.222,2.222,0,0,0,.723,1.7,2.133,2.133,0,0,0,1.443.525,2.092,2.092,0,0,0,1.479-.561,2.291,2.291,0,0,0,.687-1.659A2.358,2.358,0,0,0,176.82,237a2.306,2.306,0,0,0-1.5-.559A1.994,1.994,0,0,0,173.9,236.963Z" transform="translate(-171.172 -234.491)" fill="#24e5ff"/><path d="M185.081,235.592a4.2,4.2,0,0,1,0,6.115,5.077,5.077,0,0,1-6.315,0,4.21,4.21,0,0,1,0-6.115,5.077,5.077,0,0,1,6.315,0Zm-.956,3.066a2.2,2.2,0,1,0-2.2,2.2A2.18,2.18,0,0,0,184.125,238.658Z" transform="translate(-167.558 -234.491)" fill="#24e5ff"/><path d="M186.413,246.687h-2.2V234.745h2.2v1.01a2.961,2.961,0,0,1,2.543-1.264,3.737,3.737,0,0,1,2.67,1.046,4.685,4.685,0,0,1-.055,6.261,3.828,3.828,0,0,1-2.652,1.01,2.958,2.958,0,0,1-2.507-1.262Zm.521-9.724a2.074,2.074,0,0,0-.741,1.678,2.222,2.222,0,0,0,.723,1.7,2.133,2.133,0,0,0,1.443.525,2.084,2.084,0,0,0,1.478-.561,2.287,2.287,0,0,0,.689-1.659,2.358,2.358,0,0,0-.668-1.642,2.309,2.309,0,0,0-1.5-.559A1.991,1.991,0,0,0,186.934,236.963Z" transform="translate(-163.669 -234.491)" fill="#24e5ff"/><path d="M192.5,237.972a1.408,1.408,0,1,1-1.407,1.408A1.387,1.387,0,0,1,192.5,237.972Z" transform="translate(-159.706 -232.488)" fill="#24e5ff"/></g></g></svg>