<svg xmlns="http://www.w3.org/2000/svg" width="25.094" height="37.827" viewBox="0 0 25.094 37.827">
  <g id="그룹_958" data-name="그룹 958" transform="translate(-129.629 -691.236)">
    <path id="패스_1495" data-name="패스 1495" d="M408.82,405.89h11.606V382.913c-4.5-2.25-3.257-12.85-3.257-12.85h-3.908c-.168,6.1-1.98,8.345-3.015,9.133a2.045,2.045,0,0,1-1.243.4h-.261a2.016,2.016,0,0,1-1.219-.392c-1.033-.781-2.857-3.019-3.026-9.142h-3.908s1.244,10.6-3.257,12.85V405.89H408.82Z" transform="translate(-266.703 322.173)" fill="#fff" stroke="#707070" stroke-linecap="round" stroke-linejoin="round" stroke-width="2"/>
    <ellipse id="타원_765" data-name="타원 765" cx="2.448" cy="2.448" rx="2.448" ry="2.448" transform="translate(139.729 708.785)" fill="none" stroke="#707070" stroke-linecap="round" stroke-linejoin="round" stroke-width="2"/>
    <ellipse id="타원_766" data-name="타원 766" cx="3.069" cy="3.069" rx="3.069" ry="3.069" transform="translate(139.108 713.68)" fill="none" stroke="#707070" stroke-linecap="round" stroke-linejoin="round" stroke-width="2"/>
    <line id="선_694" data-name="선 694" x2="23.326" transform="translate(130.344 724.91)" fill="none" stroke="#707070" stroke-width="2"/>
  </g>
</svg>
