<svg xmlns="http://www.w3.org/2000/svg" width="32.979" height="29.28" viewBox="0 0 32.979 29.28">
  <g id="그룹_960" data-name="그룹 960" transform="translate(-246.615 -697.915)">
    <g id="그룹_952" data-name="그룹 952" transform="translate(247.7 699)">
      <path id="패스_1498" data-name="패스 1498" d="M.3,3.8c.78-2.048,4.388-4.29,7.41-3.7s4.582,3.9,4.68,5.07S11.8,21.153,11.8,21.153s-.575,4.777-5.455,4.972S2.538,20.86,1.563,15.108-.549,6.018.3,3.8Z" transform="matrix(0.996, 0.087, -0.087, 0.996, 18.462, 0)" fill="#fff" stroke="#707070" stroke-width="2"/>
      <path id="패스_1499" data-name="패스 1499" d="M12.1,3.8c-.78-2.048-4.387-4.29-7.41-3.7S.107,3.994.01,5.164.595,21.153.595,21.153,1.17,25.93,6.05,26.125s3.807-5.265,4.782-11.017S12.944,6.018,12.1,3.8Z" transform="matrix(0.996, -0.087, 0.087, 0.996, 0, 1.08)" fill="#fff" stroke="#707070" stroke-width="2"/>
    </g>
    <path id="패스_1500" data-name="패스 1500" d="M-1552.517,9116.972s9.319.67,10.208-6.093" transform="translate(1819.367 -8397.191)" fill="none" stroke="#707070" stroke-width="2"/>
    <path id="패스_1501" data-name="패스 1501" d="M-1542.308,9116.972s-9.318.67-10.208-6.093" transform="translate(1801.672 -8397.191)" fill="none" stroke="#707070" stroke-width="2"/>
  </g>
</svg>
