<svg xmlns="http://www.w3.org/2000/svg" width="22.556" height="25.015" viewBox="0 0 22.556 25.015">
    <path id="prefix__패스_1353" d="M55.765 332.08a10.267 10.267 0 0 0-17.53 6.941.875.875 0 0 0-.016.163v12.136a.682.682 0 1 0 1.353 0v-7.02l.119.334a10.347 10.347 0 0 0 1.538 1.983 10.278 10.278 0 0 0 14.536-14.537zm-.957 13.578a8.914 8.914 0 0 1-15.116-4.911v-.017a.673.673 0 0 0-.031-.191 9.054 9.054 0 0 1-.088-1.192 8.925 8.925 0 1 1 15.235 6.311z" data-name="패스 1353" transform="translate(-37.219 -328.074)" style="fill:#337ef7;stroke:#337ef7;stroke-width:2px"/>
</svg>
