<svg xmlns="http://www.w3.org/2000/svg" width="12.294" height="12.208" viewBox="0 0 12.294 12.208"><path d="M670.357,46.038l2-1.05a.5.5,0,0,1,.725.527l-.381,2.223a.5.5,0,0,0,.144.442l1.615,1.574a.5.5,0,0,1-.277.852l-2.232.324a.5.5,0,0,0-.376.273l-1,2.023a.5.5,0,0,1-.9,0l-1-2.023a.5.5,0,0,0-.376-.273l-2.232-.324a.5.5,0,0,1-.277-.852l1.615-1.574a.5.5,0,0,0,.144-.442l-.381-2.223a.5.5,0,0,1,.725-.527l2,1.05A.5.5,0,0,0,670.357,46.038Z" transform="matrix(0.809, 0.588, -0.588, 0.809, -507.066, -427.603)" fill="#337ef7"/></svg>