<svg xmlns="http://www.w3.org/2000/svg" width="17" height="15.516" viewBox="0 0 17 15.516">
  <g id="그룹_622" data-name="그룹 622" transform="translate(-90.425 -461.555)">
    <path id="패스_1055" data-name="패스 1055" d="M98.228,470.273l-.122-.251a4.231,4.231,0,0,0-3.994-2.214,3.966,3.966,0,0,0-3.456,2.617,5.117,5.117,0,0,0-.045,2.894,11.545,11.545,0,0,0,2.045,4.027,22.158,22.158,0,0,0,5.364,4.732.2.2,0,0,0,.21.036V470.27Z" transform="translate(0 -5.06)" fill="#9f9894"/>
    <path id="패스_1056" data-name="패스 1056" d="M148.16,464.78a3.758,3.758,0,0,0-2.813-3.061,3.488,3.488,0,0,0-3.8,1.166,4.059,4.059,0,0,0-.724,1.145v11.845a.4.4,0,0,0,.067-.036,21.924,21.924,0,0,0,4.665-4.313,11.51,11.51,0,0,0,2.247-3.655A5.694,5.694,0,0,0,148.16,464.78Z" transform="translate(-40.822)" fill="#9f9894"/>
  </g>
</svg>
