<svg xmlns="http://www.w3.org/2000/svg" width="10.102" height="9.509" viewBox="0 0 10.102 9.509">
  <g id="그룹_652" data-name="그룹 652" transform="translate(-486.037 -458.207)">
    <path id="패스_1054" data-name="패스 1054" d="M491.086,459.851a2.7,2.7,0,0,1,.482-.762,2.613,2.613,0,0,1,4.513,1.257,3.776,3.776,0,0,1-.238,2.051,7.634,7.634,0,0,1-1.49,2.424,15.854,15.854,0,0,1-3.346,2.861.139.139,0,0,1-.184,0,14.639,14.639,0,0,1-3.431-3.265,6.826,6.826,0,0,1-1.231-2.545,3.393,3.393,0,0,1,.03-1.919,2.613,2.613,0,0,1,4.815-.268Z" transform="translate(0)" fill="#fff"/>
  </g>
</svg>
